<svg width="24" height="23" viewBox="0 0 24 23" fill="none" xmlns="http://www.w3.org/2000/svg">
<path d="M23.0625 14.6736C23.5803 14.6736 24 14.2539 24 13.7361V7.54861C24 5.48086 22.3177 3.79866 20.25 3.79866H16.2153V2.57639C16.2153 1.15575 15.0595 0 13.6389 0H10.3611C8.94047 0 7.78472 1.15575 7.78472 2.57639V3.79861H3.75C1.68225 3.79861 0 5.48086 0 7.54861V18.4705C0 20.5382 1.68225 22.2205 3.75 22.2205H20.25C22.3177 22.2205 24 20.5382 24 18.4705C24 17.9527 23.5803 17.533 23.0625 17.533C22.5447 17.533 22.125 17.9527 22.125 18.4705C22.125 19.5044 21.2839 20.3455 20.25 20.3455H3.75C2.71613 20.3455 1.875 19.5044 1.875 18.4705V11.8125H11.1094V13.2205C11.1094 13.7383 11.5291 14.158 12.0469 14.158C12.5647 14.158 12.9844 13.7383 12.9844 13.2205V11.8125H22.125V13.7361C22.125 14.2539 22.5447 14.6736 23.0625 14.6736ZM9.65972 2.57639C9.65972 2.18962 9.97434 1.875 10.3611 1.875H13.6389C14.0257 1.875 14.3403 2.18962 14.3403 2.57639V3.79861H9.65972V2.57639V2.57639ZM1.875 9.93755V7.54866C1.875 6.51478 2.71613 5.67366 3.75 5.67366H20.25C21.2839 5.67366 22.125 6.51478 22.125 7.54866V9.93755H1.875Z" fill="#323642"/>
</svg>
