<svg width="24" height="22" viewBox="0 0 24 22" fill="none" xmlns="http://www.w3.org/2000/svg">
<path d="M9.46875 7.92112V7.968V10.7334V10.7803C9.46875 11.298 9.88842 11.7177 10.4062 11.7177C10.9239 11.7177 11.3436 11.298 11.3436 10.7803V10.7334V7.96805V7.92117C11.3436 7.40344 10.9239 6.98376 10.4062 6.98376C9.88842 6.98372 9.46875 7.40339 9.46875 7.92112Z" fill="#343F4A"/>
<path d="M23.7636 17.1535C23.7353 17.0888 23.6999 17.0276 23.6579 16.9709L21.5838 14.1709C21.4428 13.8314 21.1084 13.5925 20.7179 13.5925H4.21946V3.74972C4.21946 2.71594 5.06049 1.87491 6.09427 1.87491H17.9056C18.9394 1.87491 19.7805 2.71594 19.7805 3.74972V9.84291C19.7805 10.3606 20.2001 10.7803 20.7179 10.7803C21.2356 10.7803 21.6553 10.3606 21.6553 9.84291V3.74967C21.6553 1.68211 19.9732 0 17.9056 0H6.09432C4.02676 0 2.34469 1.68211 2.34469 3.74967V14.2674L0.342099 16.9709C0.300099 17.0276 0.264614 17.0888 0.236395 17.1535C-0.144839 18.026 -0.061214 19.0225 0.46013 19.8193C0.981474 20.6161 1.86118 21.0918 2.81335 21.0918H21.1866C22.1388 21.0918 23.0185 20.6161 23.5398 19.8193C24.0612 19.0225 24.1449 18.026 23.7636 17.1535ZM21.9711 18.7928C21.7947 19.0623 21.5088 19.2169 21.1867 19.2169H15.2809C15.2809 18.6992 14.8613 18.2795 14.3435 18.2795H9.65644C9.13871 18.2795 8.71904 18.6992 8.71904 19.2169H2.81335C2.49122 19.2169 2.20529 19.0623 2.02894 18.7928C1.86896 18.5483 1.83169 18.2591 1.92244 17.9872L3.75427 15.5141H20.2457L22.0776 17.9872C22.1682 18.2591 22.1311 18.5483 21.9711 18.7928Z" fill="#343F4A"/>
<path d="M6.1875 6.98373V7.03061V10.7334V10.7803C6.1875 11.298 6.60717 11.7177 7.12491 11.7177C7.64264 11.7177 8.06231 11.298 8.06231 10.7803V10.7334V7.03061V6.98373C8.06231 6.466 7.64264 6.04633 7.12491 6.04633C6.60717 6.04633 6.1875 6.466 6.1875 6.98373Z" fill="#343F4A"/>
<path d="M12.75 4.64023V4.6871V10.7334V10.7803C12.75 11.298 13.1697 11.7177 13.6874 11.7177C14.2051 11.7177 14.6248 11.298 14.6248 10.7803V10.7334V4.6871V4.64023C14.6248 4.12249 14.2051 3.70282 13.6874 3.70282C13.1697 3.70277 12.75 4.12249 12.75 4.64023Z" fill="#343F4A"/>
<path d="M16.0312 9.37411V9.42099V10.7333V10.7802C16.0312 11.298 16.4509 11.7176 16.9687 11.7176C17.4864 11.7176 17.9061 11.298 17.9061 10.7802V10.7333V9.42099V9.37411C17.9061 8.85638 17.4864 8.43671 16.9687 8.43671C16.4509 8.43671 16.0312 8.85638 16.0312 9.37411Z" fill="#343F4A"/>
</svg>
