<svg width="20" height="20" viewBox="0 0 20 20" fill="none" xmlns="http://www.w3.org/2000/svg">
<path d="M18.3019 11.9756C18.1403 11.5755 17.6848 11.3823 17.2847 11.544C16.8848 11.7058 16.6916 12.1611 16.8534 12.5612L17.7733 14.8372L15.0406 13.6327C14.8429 13.5454 14.6178 13.544 14.419 13.6288C13.485 14.0273 12.4845 14.2293 11.4454 14.2293C7.26277 14.2293 4.45317 10.9546 4.45317 7.89597C4.45317 4.40369 7.58992 1.5625 11.4454 1.5625C15.3008 1.5625 18.4375 4.40369 18.4375 7.89597C18.4375 8.16833 18.4122 8.49457 18.368 8.79089C18.3043 9.21768 18.5987 9.61533 19.0253 9.67896C19.4521 9.74258 19.8498 9.44824 19.9134 9.02145C19.9692 8.64685 20 8.24707 20 7.89597C20 5.77362 19.1013 3.78235 17.4694 2.28882C15.8568 0.812836 13.7175 0 11.4454 0C9.17317 0 7.03389 0.812836 5.42134 2.28882C3.96306 3.6235 3.09087 5.35583 2.92165 7.22366C1.08739 8.43842 4.8913e-05 10.3848 4.8913e-05 12.4814C4.8913e-05 13.791 0.412647 15.0339 1.19817 16.1032L0.0569642 18.9259C-0.0622069 19.2207 0.00920419 19.5583 0.237476 19.7797C0.386249 19.9239 0.582477 20 0.781451 20C0.887805 20 0.995075 19.9783 1.09639 19.9336L4.38665 18.4833C5.21428 18.7914 6.08922 18.9473 6.99224 18.9473C7.01177 18.9473 7.03099 18.9458 7.05007 18.9444C8.35622 18.9345 9.62606 18.5909 10.7258 17.948C11.7109 17.3721 12.5213 16.5808 13.0893 15.6465C13.6438 15.5469 14.186 15.3964 14.7123 15.1953L18.9037 17.043C19.005 17.0877 19.1121 17.1094 19.2186 17.1094C19.4176 17.1094 19.6137 17.0332 19.7625 16.889C19.9909 16.6676 20.0622 16.3301 19.943 16.0353L18.3019 11.9756ZM6.99224 17.3828C6.98155 17.3828 6.97118 17.3839 6.96065 17.3843C6.16292 17.3804 5.3951 17.2235 4.67794 16.9176C4.47911 16.8327 4.25405 16.8341 4.05629 16.9212L2.22676 17.7278L2.81697 16.2679C2.92607 15.9979 2.87603 15.6898 2.68712 15.4681C1.9515 14.6051 1.56255 13.5722 1.56255 12.4814C1.56255 11.2329 2.08776 10.05 3.00664 9.15314C3.29274 10.7126 4.09993 12.2044 5.31774 13.3765C6.83293 14.8347 8.83733 15.6796 11.0015 15.7814C9.9854 16.7815 8.53139 17.3828 6.99224 17.3828ZM12.5782 8.63281C13.0097 8.63281 13.3594 8.98254 13.3594 9.41406C13.3594 9.84558 13.0097 10.1953 12.5782 10.1953H7.89067C7.45916 10.1953 7.10942 9.84558 7.10942 9.41406C7.10942 8.98254 7.45916 8.63281 7.89067 8.63281H12.5782ZM14.9219 7.07031H7.89067C7.45916 7.07031 7.10942 6.72058 7.10942 6.28906C7.10942 5.85754 7.45916 5.50781 7.89067 5.50781H14.9219C15.3534 5.50781 15.7032 5.85754 15.7032 6.28906C15.7032 6.72058 15.3534 7.07031 14.9219 7.07031Z" fill="white"/>
</svg>
