<svg width="20" height="20" viewBox="0 0 20 20" fill="none" xmlns="http://www.w3.org/2000/svg">
<path d="M20 2.34375V5.66406C20 6.09558 19.6501 6.44531 19.2187 6.44531C18.7872 6.44531 18.4375 6.09558 18.4375 5.66406V2.66739L13.6383 7.46643C13.4858 7.61902 13.2858 7.69531 13.0859 7.69531C12.886 7.69531 12.686 7.61902 12.5335 7.46643C12.2284 7.16141 12.2284 6.66672 12.5335 6.36169L17.3326 1.5625H14.3359C13.9044 1.5625 13.5546 1.21277 13.5546 0.78125C13.5546 0.349884 13.9044 0 14.3359 0H17.6562C18.9485 0 20 1.05148 20 2.34375ZM19.0907 14.0825C17.9995 13.0304 17.0854 12.4231 16.2138 12.1712C15.0128 11.824 13.9003 12.1397 12.9075 13.1093C12.906 13.1108 12.9046 13.1122 12.9031 13.1137L11.8458 14.1631C11.1891 13.7943 9.91253 12.9823 8.51635 11.5862L8.4135 11.4833C7.02648 10.0963 6.20952 8.81256 5.83782 8.15323L6.88625 7.09686C6.88777 7.09534 6.88915 7.09381 6.89067 7.09244C7.86022 6.09955 8.17592 4.98718 7.82878 3.78616C7.57686 2.91458 6.96956 2.00043 5.91747 0.909271C5.38005 0.352173 4.65816 0.0299072 3.88454 0.00198364C3.11092 -0.0257873 2.36782 0.243378 1.79149 0.760651L1.76906 0.780792C1.75869 0.7901 1.74861 0.799713 1.7387 0.809631C0.591846 1.95648 -0.00935049 3.56201 0.000109953 5.45273C0.0161317 8.6644 1.78127 12.3373 4.72194 15.278C4.72438 15.2806 4.72698 15.2831 4.72942 15.2855C5.28209 15.8374 5.90969 16.3837 6.59496 16.909C6.93737 17.1715 7.42763 17.1068 7.69024 16.7644C7.95284 16.422 7.88799 15.9315 7.54558 15.6691C6.91143 15.1828 6.33312 14.6796 5.82668 14.1731C5.82439 14.1707 5.8218 14.1682 5.81951 14.166C3.16768 11.5111 1.5765 8.25165 1.56246 5.44479C1.55529 3.9888 1.99321 2.77344 2.82939 1.92871L2.83535 1.92322C3.40328 1.41357 4.26296 1.44455 4.79259 1.99387C6.8153 4.09149 6.66881 5.08163 5.7751 5.99823L4.32689 7.45728C4.09984 7.68616 4.03652 8.03101 4.16774 8.3255C4.20452 8.40805 5.0938 10.3735 7.30892 12.5885L7.41176 12.6912C9.62642 14.906 11.5919 15.7953 11.6745 15.8322C11.969 15.9633 12.3138 15.9001 12.5427 15.6729L14.0014 14.225C14.918 13.3311 15.9083 13.1845 18.0061 15.2072C18.5554 15.7368 18.5864 16.5967 18.0767 17.1645L18.0712 17.1706C17.2334 17.9999 16.031 18.4375 14.5907 18.4375C14.5788 18.4375 14.5669 18.4375 14.5552 18.4373C13.4039 18.4317 12.0707 18.1161 10.7 17.5249C10.3038 17.3538 9.84417 17.5366 9.67327 17.9327C9.50237 18.329 9.68502 18.7886 10.0811 18.9595C11.6656 19.6429 13.1683 19.993 14.5472 19.9998C14.5619 20 14.5765 20 14.5912 20C16.4628 20 18.0523 19.3993 19.1903 18.2613C19.2002 18.2513 19.2099 18.2413 19.2192 18.2307L19.2395 18.2083C19.7566 17.6321 20.0259 16.8889 19.998 16.1154C19.9701 15.3418 19.6478 14.6198 19.0907 14.0825Z" fill="white"/>
</svg>
