<svg width="23" height="24" viewBox="0 0 23 24" fill="none" xmlns="http://www.w3.org/2000/svg">
<path d="M22.0312 17.3906C22.549 17.3906 22.9687 16.9709 22.9687 16.4531V12.1406C22.9687 10.5898 21.707 9.32811 20.1562 9.32811H18.3281V5.62499C18.3281 3.55724 16.6458 1.875 14.5781 1.875H12.35C11.9872 0.761764 10.9501 0 9.76437 0H8.56372C7.37797 0 6.34086 0.761764 5.9781 1.875H3.74999C1.68225 1.875 0 3.55724 0 5.62499V20.25C0 22.3177 1.68225 24 3.74999 24H7.87498C8.39277 24 8.81248 23.5802 8.81248 23.0625C8.81248 22.5447 8.39277 22.125 7.87498 22.125H3.74999C2.71612 22.125 1.875 21.2838 1.875 20.25V5.62499C1.875 4.59112 2.71612 3.74999 3.74999 3.74999H3.84374V6.51561C3.84374 7.03339 4.26346 7.45311 4.78124 7.45311H13.6406C14.1584 7.45311 14.5781 7.03339 14.5781 6.51561V3.74999C15.612 3.74999 16.4531 4.59112 16.4531 5.62499V9.32811H13.4059C11.8553 9.32811 10.5937 10.5897 10.5937 12.1403V21.1878C10.5937 22.7385 11.8554 24 13.4067 24L20.1562 23.9965C21.707 23.9965 22.9687 22.7349 22.9687 21.1844C22.9687 20.6666 22.549 20.2469 22.0312 20.2469C21.5134 20.2469 21.0937 20.6666 21.0937 21.1844C21.0937 21.7011 20.6731 22.1215 20.1557 22.1215L13.4062 22.125C12.8893 22.125 12.4687 21.7045 12.4687 21.1878V12.1403C12.4687 11.6235 12.8891 11.2031 13.4059 11.2031H20.1562C20.6731 11.2031 21.0937 11.6237 21.0937 12.1406V16.4531C21.0937 16.9709 21.5135 17.3906 22.0312 17.3906ZM12.7031 5.57811H5.71874V3.74999H6.70311C7.13328 3.74999 7.50828 3.45721 7.61263 3.03988L7.74378 2.51517C7.838 2.13825 8.17517 1.875 8.56372 1.875H9.76437C10.1529 1.875 10.49 2.13825 10.5843 2.51517L10.7155 3.03988C10.8198 3.45721 11.1948 3.74999 11.625 3.74999H12.7031V5.57811Z" fill="#343F4A"/>
<path d="M18.2812 13.0781H15.2812C14.7635 13.0781 14.3438 13.4978 14.3438 14.0156C14.3438 14.5334 14.7635 14.9531 15.2812 14.9531H18.2812C18.799 14.9531 19.2187 14.5334 19.2187 14.0156C19.2187 13.4978 18.7991 13.0781 18.2812 13.0781Z" fill="#343F4A"/>
<path d="M18.2812 16.3594H15.2812C14.7635 16.3594 14.3438 16.7791 14.3438 17.2969C14.3438 17.8147 14.7635 18.2344 15.2812 18.2344H18.2812C18.799 18.2344 19.2187 17.8147 19.2187 17.2969C19.2187 16.7791 18.7991 16.3594 18.2812 16.3594Z" fill="#343F4A"/>
</svg>
